<svg xmlns="http://www.w3.org/2000/svg" viewBox="0 0 180 80"><style>.a{fill:url(#A)}.b{fill:url(#B)}.st2{fill:#fff}.st3{fill:#1c5a87}</style><linearGradient id="A" gradientUnits="userSpaceOnUse" x1="1" y1="40" x2="179" y2="40"><stop offset="0" stop-color="#9dcb44"/><stop offset="1" stop-color="#76b042"/></linearGradient><path class="a" d="M16.36 79c-1.96-.03-8.68-.56-12.76-6.04-2.55-3.43-3.26-7.83-1.97-12.4 1.8-6.4 9.96-46.66 10.04-47.07l.12-.58.2-.56c1.93-5.64 7.5-11.33 15.53-11.33h116.34l.83-.02c2.94 0 10.31.74 15.12 7.56 2.43 3.46 11.75 16.46 15.65 21.89l.04.06c1.13 1.41 3.5 4.9 3.5 9.3s-1.98 7.22-3.58 9.48l-16.1 22.86C158.18 73.82 153.9 79 144.7 79H16.36z"/><linearGradient id="B" gradientUnits="userSpaceOnUse" x1="5.78" y1="40" x2="174.21" y2="40"><stop offset="0" stop-color="#fad728"/><stop offset="1" stop-color="#f58728"/></linearGradient><path class="b" d="M16.44 74.21c-1-.01-6.15-.29-9-4.1-1.17-1.57-2.32-4.28-1.2-8.26 1.84-6.59 10.04-47 10.13-47.4l.05-.28.1-.26c1.03-3.01 4.51-8.1 11-8.1H144l.7-.02c2.2 0 7.7.54 11.2 5.52 2.8 3.96 14.63 20.46 15.8 22.1.67.81 2.52 3.35 2.52 6.4 0 2.89-1.31 4.75-2.7 6.72l-16.12 22.9c-.8 1.18-3.8 4.78-10.7 4.78H16.44z"/><path class="st2" d="M144.69 69.96H16.51s-8.1-.14-6.18-6.95 10.2-47.72 10.2-47.72 1.8-5.23 7-5.23h116.6s5.32-.5 8.28 3.7c2.97 4.22 15.92 22.26 15.92 22.26s1.63 1.87 1.63 3.78c0 1.6-.76 2.62-2.05 4.45L151.89 67s-1.68 2.96-7.2 2.96z"/><path class="st3" d="M64.44 54.14c0-.91.12-2.43.46-4.05a11.3 11.3 0 0 1-9.24 4.15c-6.23 0-8.25-3.4-7.29-7.9 1.48-6.95 8.45-9.48 19.3-9.03.63-2.73.81-5.27-2.07-5.27-1.78 0-3.65.97-4.22 3.85h-9.12c.3-1.16.76-3.34 3.1-5.32 2.42-2.02 6.62-3.19 11.23-3.19 2.28 0 7.08.3 9.2 2.94 1.3 1.57 1.4 3.95.81 6.69l-2.52 11.86a24.89 24.89 0 0 0-.52 5.27h-9.12zm-6.51-8.67c-.4 1.88.48 3.45 2.76 3.45a5.2 5.2 0 0 0 4.27-2.43 12.4 12.4 0 0 0 1.72-4.77c-4.06.05-7.98.1-8.75 3.75zM99.08 28.4l-1.3 6.08h-6.12l-1.88 8.82c-.61 3.14-.92 4.56 2.73 4.56.76 0 1.22 0 2.41-.16l-1.27 5.98c-1.3.2-3.03.46-6.27.46-7.6 0-8.59-2.53-7.54-7.45l2.6-12.21h-4.82l1.3-6.09h4.96l.84-3.95 9.95-3.65-1.62 7.6h6.03zm15.66 8.81c.5-2.38.01-4.36-2.47-4.36-3.5 0-5.06 3.55-6.01 8.01-1.4 6.59.1 8.11 2.48 8.11 3.24 0 4.14-3.24 4.55-5.17h9.62c-1.31 6.44-7.35 10.54-15.06 10.54-8.1 0-13.37-4.3-11.42-13.48 2.13-10.03 9.9-13.43 17.04-13.43 2.74 0 7.25.46 9.51 3.65 1.69 2.33 1.4 4.66 1.18 6.13h-9.42zm-74.8 0c.5-2.38.02-4.36-2.47-4.36-3.5 0-5.06 3.55-6 8.01-1.4 6.59.1 8.11 2.48 8.11 3.24 0 4.13-3.24 4.54-5.17h9.63c-1.32 6.44-7.36 10.54-15.06 10.54-8.11 0-13.38-4.3-11.43-13.48 2.14-10.03 9.9-13.43 17.05-13.43 2.73 0 7.25.46 9.5 3.65 1.69 2.33 1.4 4.66 1.18 6.13h-9.42zm88.89-20.83l10.5-.6-3.02 14.95a16.24 16.24 0 0 1 9.33-3.84c2.48-.15 4.02.32 5.8 2.14 2.19 2.14 1.77 4.96 1.24 8.55l-2.22 16.8H141l2.06-15.08c.32-2.15 1.83-6.32-2.11-6.07-3.04.19-5.02 2.76-5.42 3.8-.43 1.2-.67 2.83-.99 4.98l-1.75 12.37h-9.5l5.54-38zm-21.95 47.19c0-.7.49-1.29 1.22-1.29.62 0 1.04.45 1.04 1.08a1.2 1.2 0 0 1-1.24 1.25c-.62 0-1.02-.44-1.02-1.04zm7.75.73c-.39.19-1.02.31-1.75.31-1.52 0-2.6-.91-2.6-2.51 0-2.2 1.68-3.9 4.03-3.9.52 0 .98.1 1.24.2l-.44 1.39a2.08 2.08 0 0 0-.83-.15c-1.3 0-2.09 1.1-2.09 2.25 0 .85.53 1.28 1.2 1.28a3 3 0 0 0 1.23-.26l.01 1.39zm7.43-3.58c0 2.26-1.54 3.9-3.68 3.9-1.56 0-2.6-1.01-2.6-2.54 0-2.14 1.48-3.89 3.67-3.89 1.65 0 2.61 1.13 2.61 2.53zm-4.4 1.33c0 .71.35 1.2.98 1.2.99 0 1.54-1.46 1.54-2.51 0-.57-.23-1.18-.97-1.18-1.04 0-1.57 1.53-1.56 2.49zm4.94 2.44l.77-4.16c.14-.78.24-1.46.31-2h1.56l-.1 1h.02a2.49 2.49 0 0 1 2.1-1.14c.98 0 1.4.62 1.46 1.16a2.54 2.54 0 0 1 2.11-1.16c.96 0 1.52.6 1.52 1.65 0 .27-.05.74-.12 1.06l-.66 3.59h-1.75l.61-3.36c.05-.26.09-.52.09-.76 0-.43-.19-.73-.62-.73-.6 0-1.2.82-1.43 2.05l-.52 2.8h-1.75l.63-3.39c.05-.25.09-.5.09-.7 0-.42-.14-.76-.58-.76-.62 0-1.26.87-1.49 2.08l-.5 2.77h-1.75zm10.52-.92c0-.7.5-1.29 1.22-1.29.62 0 1.05.45 1.05 1.08a1.2 1.2 0 0 1-1.25 1.25c-.61 0-1.02-.44-1.02-1.04zm7.24.92c.02-.37.05-.78.1-1.22h-.05c-.56 1.02-1.34 1.36-2.06 1.36-1.11 0-1.87-.86-1.87-2.14 0-2.08 1.38-4.3 4.41-4.3.73 0 1.53.14 2.04.3l-.65 3.23c-.15.8-.27 2-.24 2.77h-1.68zm.53-4.88a2.8 2.8 0 0 0-.49-.05c-1.17 0-2.03 1.44-2.03 2.59 0 .6.24 1.02.75 1.02.54 0 1.2-.62 1.48-2.13l.3-1.43zm9.11-1.28l-.8 4.16c-.15.78-.24 1.44-.33 2h-1.6l.12-1h-.03a2.68 2.68 0 0 1-2.13 1.14c-.98 0-1.57-.56-1.57-1.73 0-.34.04-.7.13-1.13l.64-3.44h1.81l-.62 3.3a4.9 4.9 0 0 0-.08.8c0 .4.15.72.61.72.62 0 1.25-.74 1.49-1.97l.54-2.85H150z"/><circle class="st3" cx="160.77" cy="40.17" r="4.02"/></svg>
